<mxfile host="app.diagrams.net" modified="2023-05-19T12:37:42.054Z" agent="Mozilla/5.0 (Windows NT 10.0; Win64; x64; rv:109.0) Gecko/20100101 Firefox/113.0" etag="DOuuFDGC0twvFVUVFQlB" version="21.2.4" type="github">
  <diagram name="Page-1" id="5llu_Hd2iu3M0sM_2Qjk">
    <mxGraphModel dx="880" dy="509" grid="1" gridSize="10" guides="1" tooltips="1" connect="1" arrows="1" fold="1" page="1" pageScale="1" pageWidth="827" pageHeight="1169" math="0" shadow="0">
      <root>
        <mxCell id="0" />
        <mxCell id="1" parent="0" />
        <mxCell id="sCLEM9Lt1y3l28-IKvOX-6" value="DATA PENGEMBALIAN" style="edgeStyle=orthogonalEdgeStyle;rounded=0;orthogonalLoop=1;jettySize=auto;html=1;entryX=0.5;entryY=0;entryDx=0;entryDy=0;" edge="1" parent="1" source="sCLEM9Lt1y3l28-IKvOX-1" target="sCLEM9Lt1y3l28-IKvOX-5">
          <mxGeometry x="-0.3" y="-10" relative="1" as="geometry">
            <mxPoint as="offset" />
          </mxGeometry>
        </mxCell>
        <mxCell id="sCLEM9Lt1y3l28-IKvOX-1" value="PETUGAS LAYANAN" style="rounded=0;whiteSpace=wrap;html=1;" vertex="1" parent="1">
          <mxGeometry x="480" y="50" width="120" height="60" as="geometry" />
        </mxCell>
        <mxCell id="sCLEM9Lt1y3l28-IKvOX-2" value="&lt;div&gt;KEPALA WO&lt;/div&gt;" style="rounded=0;whiteSpace=wrap;html=1;" vertex="1" parent="1">
          <mxGeometry x="480" y="220" width="120" height="60" as="geometry" />
        </mxCell>
        <mxCell id="sCLEM9Lt1y3l28-IKvOX-11" value="BARANG BARANG" style="edgeStyle=orthogonalEdgeStyle;rounded=0;orthogonalLoop=1;jettySize=auto;html=1;exitX=0.25;exitY=1;exitDx=0;exitDy=0;entryX=0;entryY=0.5;entryDx=0;entryDy=0;" edge="1" parent="1" source="sCLEM9Lt1y3l28-IKvOX-3" target="sCLEM9Lt1y3l28-IKvOX-5">
          <mxGeometry x="0.3" y="10" relative="1" as="geometry">
            <mxPoint as="offset" />
          </mxGeometry>
        </mxCell>
        <mxCell id="sCLEM9Lt1y3l28-IKvOX-3" value="&lt;div&gt;PETUGAS PENGADAAN&lt;/div&gt;" style="rounded=0;whiteSpace=wrap;html=1;" vertex="1" parent="1">
          <mxGeometry x="100" y="50" width="120" height="60" as="geometry" />
        </mxCell>
        <mxCell id="sCLEM9Lt1y3l28-IKvOX-12" value="DATA KLIEN" style="edgeStyle=orthogonalEdgeStyle;rounded=0;orthogonalLoop=1;jettySize=auto;html=1;exitX=0.25;exitY=0;exitDx=0;exitDy=0;entryX=0;entryY=0.5;entryDx=0;entryDy=0;" edge="1" parent="1" source="sCLEM9Lt1y3l28-IKvOX-4" target="sCLEM9Lt1y3l28-IKvOX-5">
          <mxGeometry x="0.3" y="-10" relative="1" as="geometry">
            <mxPoint as="offset" />
          </mxGeometry>
        </mxCell>
        <mxCell id="sCLEM9Lt1y3l28-IKvOX-4" value="KLIEN" style="rounded=0;whiteSpace=wrap;html=1;" vertex="1" parent="1">
          <mxGeometry x="100" y="230" width="120" height="60" as="geometry" />
        </mxCell>
        <mxCell id="sCLEM9Lt1y3l28-IKvOX-13" style="edgeStyle=orthogonalEdgeStyle;rounded=0;orthogonalLoop=1;jettySize=auto;html=1;exitX=0.5;exitY=1;exitDx=0;exitDy=0;entryX=1;entryY=0.5;entryDx=0;entryDy=0;" edge="1" parent="1" source="sCLEM9Lt1y3l28-IKvOX-5" target="sCLEM9Lt1y3l28-IKvOX-4">
          <mxGeometry relative="1" as="geometry" />
        </mxCell>
        <mxCell id="sCLEM9Lt1y3l28-IKvOX-14" value="&lt;div&gt;KELENGKAPAN BARANG,&lt;/div&gt;&lt;div&gt;LAPORAN PEMINJAMAN&lt;br&gt;&lt;/div&gt;" style="edgeStyle=orthogonalEdgeStyle;rounded=0;orthogonalLoop=1;jettySize=auto;html=1;exitX=0.5;exitY=1;exitDx=0;exitDy=0;entryX=-0.008;entryY=0.633;entryDx=0;entryDy=0;entryPerimeter=0;" edge="1" parent="1" source="sCLEM9Lt1y3l28-IKvOX-5" target="sCLEM9Lt1y3l28-IKvOX-2">
          <mxGeometry x="0.1977" y="-22" relative="1" as="geometry">
            <mxPoint as="offset" />
          </mxGeometry>
        </mxCell>
        <mxCell id="sCLEM9Lt1y3l28-IKvOX-5" value="&lt;div&gt;WEDDING&lt;/div&gt;&lt;div&gt;ORGANIZER&lt;br&gt;&lt;/div&gt;" style="ellipse;whiteSpace=wrap;html=1;" vertex="1" parent="1">
          <mxGeometry x="270" y="130" width="120" height="80" as="geometry" />
        </mxCell>
      </root>
    </mxGraphModel>
  </diagram>
</mxfile>
